Patient4_TMGait_0pt5_02_left_16_GRF.mot
version=1
nRows=26
nColumns=19
inDegrees=no
endheader
time	F1x	F1y	F1z	M1x	M1y	M1z	F2x	F2y	F2z	M2x	M2y	M2z	EC1x	EC1y	EC1z	EC2x	EC2y	EC2z
20.26	1.4771	3.8673	-5.7175	-0.53686	4.2182	6.2862	-23.7626	735.3386	-58.0439	256.7507	56.5998	632.7215	-0.0592	0.0182	-0.0073	-0.0462	0.0165	0.9585
20.2726	1.0269	2.8576	-3.7852	-0.4637	2.7614	4.524	-21.968	742.7616	-54.3123	259.5183	52.7622	633.4275	-0.0592	0.0182	-0.0073	-0.0462	0.0165	0.9585
20.2851	0.63445	2.0233	-2.1397	-0.41709	1.5144	3.0446	-19.0898	751.6903	-50.5256	263.0438	48.427	634.4122	-0.0592	0.0182	-0.0073	-0.0462	0.0165	0.9585
20.2977	0.32373	1.4212	-0.87786	-0.39717	0.55005	1.9347	-15.2034	761.4412	-46.9861	267.0845	43.8789	635.3654	-0.0592	0.0182	-0.0073	-0.0462	0.0165	0.9585
20.3103	0.092945	1.043	-0.0036618	-0.39829	-0.12655	1.1815	-10.5867	771.185	-43.8703	271.2922	39.3684	635.9014	-0.0592	0.0182	-0.0073	-0.0462	0.0165	0.9585
20.3229	-0.074271	0.85665	0.54589	-0.41417	-0.56544	0.73771	-5.6602	780.1237	-41.2892	275.296	35.1432	635.6926	-0.0592	0.0182	-0.0073	-0.0462	0.0165	0.9585
20.3354	-0.19472	0.80575	0.84477	-0.43382	-0.81971	0.52374	-0.89208	787.5658	-39.2872	278.7497	31.4108	634.5005	-0.0592	0.0182	-0.0073	-0.0462	0.0165	0.9585
20.348	-0.28993	0.82264	0.96845	-0.44365	-0.948	0.45403	3.3242	792.9107	-37.8869	281.3475	28.3345	632.1076	-0.0592	0.0182	-0.0073	-0.0462	0.0165	0.9585
20.3606	-0.37265	0.82861	0.98537	-0.42648	-1.0012	0.4282	6.7807	795.6663	-37.0677	282.8478	25.9793	628.2879	-0.0592	0.0182	-0.0073	-0.0462	0.0165	0.9585
20.3731	-0.45263	0.74024	0.9494	-0.36083	-1.0181	0.35912	9.4651	795.552	-36.7566	283.1173	24.3016	622.889	-0.0592	0.0182	-0.0073	-0.0462	0.0165	0.9585
20.3857	-0.53419	0.47538	0.89981	-0.22286	-1.027	0.16271	11.4911	792.5369	-36.8333	282.1398	23.1767	615.8794	-0.0592	0.0182	-0.0073	-0.0462	0.0165	0.9585
20.3983	-0.61618	-0.038076	0.86213	0.010666	-1.0464	-0.23288	13.0447	786.8529	-37.1554	280.0132	22.4358	607.3964	-0.0592	0.0182	-0.0073	-0.0462	0.0165	0.9585
20.4109	-0.68036	-0.8557	0.84748	0.35954	-1.0747	-0.89671	14.3238	778.918	-37.6114	276.9137	21.9261	597.6953	-0.0592	0.0182	-0.0073	-0.0462	0.0165	0.9585
20.4234	-0.68823	-1.9834	0.85397	0.82653	-1.0933	-1.8539	15.4941	769.2961	-38.1449	273.071	21.5477	587.138	-0.0592	0.0182	-0.0073	-0.0462	0.0165	0.9585
20.436	-0.59456	-3.3649	0.86882	1.3871	-1.0688	-3.0706	16.6885	758.7014	-38.7529	268.7646	21.2532	576.1994	-0.0592	0.0182	-0.0073	-0.0462	0.0165	0.9585
20.4486	-0.31988	-4.8333	0.86161	1.9755	-0.94486	-4.3979	17.982	747.9501	-39.4708	264.3051	21.04	565.4317	-0.0592	0.0182	-0.0073	-0.0462	0.0165	0.9585
20.4611	0.23373	-6.0477	0.78594	2.4605	-0.64231	-5.529	19.4148	737.8689	-40.3536	260.0043	20.9316	555.3924	-0.0592	0.0182	-0.0073	-0.0462	0.0165	0.9585
20.4737	1.1801	-6.4784	0.58133	2.6264	-0.063362	-5.9756	20.9942	729.2066	-41.4646	256.1436	20.9647	546.5859	-0.0592	0.0182	-0.0073	-0.0462	0.0165	0.9585
20.4863	2.6143	-5.3465	0.18078	2.1512	0.892	-5.0166	22.7112	722.5208	-42.8492	252.9382	21.1677	539.3698	-0.0592	0.0182	-0.0073	-0.0462	0.0165	0.9585
20.4989	4.5974	-1.6036	-0.47964	0.60316	2.3051	-1.6855	24.5343	718.0607	-44.5186	250.492	21.5554	533.8859	-0.0592	0.0182	-0.0073	-0.0462	0.0165	0.9585
20.5114	7.0712	6.0183	-1.4486	-2.5373	4.1995	5.1952	26.4026	715.6588	-46.4322	248.7614	22.1121	529.9853	-0.0592	0.0182	-0.0073	-0.0462	0.0165	0.9585
20.524	9.813	18.8649	-2.7353	-7.8172	6.4894	16.877	28.2245	714.6881	-48.5055	247.5424	22.8026	527.1973	-0.0592	0.0182	-0.0073	-0.0462	0.0165	0.9585
20.5366	12.3351	38.0712	-4.2764	-15.6918	8.9123	34.4364	29.8867	714.1158	-50.5925	246.4905	23.5586	524.7706	-0.0592	0.0182	-0.0073	-0.0462	0.0165	0.9585
20.5491	13.8218	64.1074	-5.8864	-26.3414	10.9569	58.3564	31.2747	712.63	-52.5113	245.1655	24.2906	521.7643	-0.0592	0.0182	-0.0073	-0.0462	0.0165	0.9585
20.5617	13.2225	96.2758	-7.2645	-39.4631	11.9159	88.0622	32.2871	708.8303	-54.0468	243.0985	24.8813	517.1953	-0.0592	0.0182	-0.0073	-0.0462	0.0165	0.9585
20.5743	9.8924	132.4305	-7.987	-54.1541	11.1372	121.6443	32.8591	701.4517	-55.0055	239.8703	25.2237	510.1716	-0.0592	0.0182	-0.0073	-0.0462	0.0165	0.9585
